{"title":"The.Imaginarium.of.Doctor.Parnassus.1080p.BluRay.DTS.x264-LTT","uid":5491084,"size":7584068379,"categoryP":"video","categoryS":"hd___movies","magnet":"?xt=urn:btih:337612be8a483e0fd2231a46baedad291a46eb11&amp;dn=The.Imaginarium.of.Doctor.Parnassus.1080p.BluRay.DTS.x264-LTT&amp;tr=udp%3A%2F%2Ftracker.openbittorrent.com%3A80&amp;tr=udp%3A%2F%2Fopen.demonii.com%3A1337&amp;tr=udp%3A%2F%2Ftracker.coppersurfer.tk%3A6969&amp;tr=udp%3A%2F%2Fexodus.desync.com%3A6969","seeders":2,"leechers":0,"uploader":"Ltt_01","files":2,"time":1271002691,"description":"Doctor Parnassus 1080p BluRay.mkv\n*********************************\n\nTiTLE......  The Imaginarium of Doctor Parnassus\nYEAR.......  2009\nGENRE......  Adventure | Fantasy | Mystery \niMDB RATE..  User Rating: 7.3/10 (20,359 votes)\niMDB URL... &lt;a href=&quot; http://www.imdb.com/title/tt1054606/&quot; rel=&quot;nofollow&quot; target=&quot;_NEW&quot;&gt; http://www.imdb.com/title/tt1054606/&lt;/a&gt;\nAwards 2010: Nominated for 2 Oscars. Another 2 wins &amp; 10 nominations \n********************************************************************\n\nVideo\nDuration                         : 2h 2mn\nBit rate                         : 6 578 Kbps\nWidth                            : 1 920 pixels\nHeight                           : 1 072 pixels\nDisplay aspect ratio             : 16:9\nFrame rate                       : 23.976 fps\nStream size                      : 5.62 GiB (80%)\n\nAudio\nFormat                           : DTS\nFormat/Info                      : Digital Theater Systems\nBit rate                         : 1 510 Kbps\nChannel(s)                       : 6 channels\nChannel positions                : Front: L C R, Surround: L R, LFE\nSampling rate                    : 48.0 KHz\nResolution                       : 24 bits\nStream size                      : 1.29 GiB (18%)\nLanguage                         : English\n\nSubtitles English, French, Spanish\n**********************************\n\n","torrent":{"xt":"urn:btih:337612be8a483e0fd2231a46baedad291a46eb11","amp;dn":"The.Imaginarium.of.Doctor.Parnassus.1080p.BluRay.DTS.x264-LTT","amp;tr":["udp%3A%2F%2Ftracker.openbittorrent.com%3A80","udp%3A%2F%2Fopen.demonii.com%3A1337","udp%3A%2F%2Ftracker.coppersurfer.tk%3A6969","udp%3A%2F%2Fexodus.desync.com%3A6969"],"infoHash":"337612be8a483e0fd2231a46baedad291a46eb11","infoHashBuffer":{"type":"Buffer","data":[51,118,18,190,138,72,62,15,210,35,26,70,186,237,173,41,26,70,235,17]},"announce":[],"urlList":[]}}